<?xml version="1.0" standalone="no"?>
<!DOCTYPE svg PUBLIC "-//W3C//DTD SVG 20010904//EN"
 "http://www.w3.org/TR/2001/REC-SVG-20010904/DTD/svg10.dtd">
<svg version="1.0" xmlns="http://www.w3.org/2000/svg"
 width="460.000000pt" height="460.000000pt" viewBox="0 0 460.000000 460.000000"
 preserveAspectRatio="xMidYMid meet">
<metadata>
Created by potrace 1.14, written by Peter Selinger 2001-2017
</metadata>
<g transform="translate(0.000000,460.000000) scale(0.100000,-0.100000)"
fill="#000000" stroke="none">
<path d="M1556 3439 c-78 -11 -172 -38 -406 -116 -215 -71 -377 -123 -400
-128 -8 -2 -43 -10 -78 -19 -148 -39 -298 -41 -377 -7 -27 12 -52 25 -55 29
-3 4 -15 15 -26 25 -21 17 -23 17 -77 -33 l-56 -51 27 -26 c41 -38 99 -73 161
-96 87 -32 292 -29 424 5 l97 26 0 -644 0 -644 75 0 c71 0 75 1 76 23 1 34 1
1177 0 1217 -1 29 -7 39 -33 54 l-31 19 34 13 c29 11 381 124 574 184 80 25
192 34 245 20 71 -19 177 -97 297 -218 l42 -43 87 21 c126 30 126 29 62 81
-30 24 -70 55 -88 69 -19 14 -52 41 -75 60 -22 19 -65 53 -95 75 -30 21 -57
42 -60 45 -3 3 -25 15 -50 27 -86 42 -167 50 -294 32z"/>
<path d="M3249 3306 c-2 -2 -36 -7 -76 -10 -80 -8 -186 -33 -308 -74 -44 -14
-82 -27 -85 -27 -3 -1 -12 -4 -20 -8 -47 -18 -222 -70 -330 -97 -69 -17 -132
-34 -140 -37 -8 -3 -22 -7 -30 -9 -8 -1 -58 -14 -110 -28 -132 -35 -241 -33
-324 8 -66 33 -179 134 -216 195 -28 46 -28 46 -152 9 l-68 -20 38 -41 c236
-257 371 -325 619 -314 65 3 127 7 138 10 11 3 52 12 90 21 39 8 104 26 145
39 108 36 150 46 151 39 0 -4 1 -276 1 -604 l1 -598 77 0 76 0 0 599 0 600
-25 12 c-14 7 -29 12 -33 11 -5 -1 -8 2 -8 6 0 5 15 13 33 19 28 10 243 76
382 119 113 34 300 25 300 -15 0 -43 53 10 112 112 13 24 6 44 -10 28 -7 -7
-25 -2 -58 14 -26 14 -71 27 -99 30 -28 3 -55 7 -59 10 -5 2 -10 3 -12 1z"/>
<path d="M3477 3178 c-15 -24 -34 -53 -43 -65 -14 -20 -13 -23 14 -55 16 -18
52 -68 80 -110 l52 -77 42 5 c89 10 135 10 196 -1 34 -7 62 -8 62 -3 0 4 5 8
11 8 5 0 7 -5 3 -12 -5 -7 -3 -8 6 -3 10 6 10 10 -3 20 -25 18 -95 161 -108
221 -7 30 -14 54 -16 54 -13 0 -162 32 -183 40 -71 25 -83 23 -113 -22z m177
-76 c-4 7 0 7 12 0 22 -12 61 -52 50 -52 -4 0 -16 10 -25 21 l-18 22 -34 -48
c-19 -26 -33 -52 -31 -56 1 -5 -2 -9 -8 -9 -5 0 -10 4 -10 8 0 5 -11 15 -25
22 -43 23 -50 81 -14 112 19 16 22 16 65 -7 24 -13 41 -19 38 -13z m13 -68
c-3 -3 -12 -4 -19 -1 -8 3 -5 6 6 6 11 1 17 -2 13 -5z m43 -33 c0 -4 19 -18
43 -31 52 -29 133 -90 120 -90 -6 0 -30 15 -54 33 -63 47 -119 78 -130 72 -5
-4 -6 1 -3 10 5 11 2 14 -12 9 -15 -5 -16 -4 -5 4 14 10 41 6 41 -7z m-51 -31
c-6 -5 -18 -6 -26 -3 -19 8 -16 11 13 11 17 0 22 -3 13 -8z"/>
<path d="M3019 2985 c-80 -76 -79 -69 -18 -131 29 -29 56 -54 59 -54 3 0 32
24 63 54 l58 54 -59 59 -59 60 -44 -42z"/>
<path d="M1779 2848 c-3 -41 -4 -1306 0 -1321 3 -15 14 -17 78 -16 l74 2 -1
36 c-1 20 -2 75 -1 123 l1 86 108 4 c105 3 108 4 164 41 45 30 63 51 85 95 28
57 28 57 28 267 0 201 -1 212 -24 258 -31 63 -131 164 -256 258 -86 64 -100
79 -103 107 -3 25 -9 33 -30 38 -15 3 -47 12 -71 20 -54 17 -51 17 -52 2z
m194 -310 c17 -13 37 -27 43 -33 6 -5 30 -25 52 -43 24 -19 53 -57 69 -90 26
-53 28 -66 30 -202 3 -173 -5 -211 -51 -239 -46 -29 -186 -31 -186 -3 -1 20
-1 626 0 630 0 6 14 0 43 -20z"/>
<path d="M1291 2709 c-70 -21 -117 -64 -158 -144 -26 -50 -26 -52 -27 -305 -1
-277 2 -315 35 -385 48 -102 138 -152 255 -142 98 7 176 62 215 150 22 49 23
65 25 305 1 139 -3 274 -7 300 -26 144 -103 218 -235 227 -38 2 -84 0 -103 -6z
m156 -171 c12 -12 27 -35 32 -52 14 -44 8 -514 -7 -548 -23 -54 -91 -79 -147
-53 -64 31 -66 42 -63 350 3 272 3 274 27 299 13 14 33 27 45 29 37 8 90 -4
113 -25z"/>
<path d="M3519 2675 c-76 -15 -139 -64 -176 -135 -28 -55 -28 -55 -30 -280 -3
-208 3 -287 22 -332 6 -16 0 -18 -54 -18 -81 0 -112 17 -132 71 -13 37 -16 95
-17 349 0 168 -1 312 -1 321 -1 13 -15 17 -77 18 l-75 2 4 -348 c2 -191 6
-358 9 -369 13 -43 47 -100 80 -131 56 -53 95 -63 239 -63 121 0 128 1 124 19
-3 19 -3 19 38 0 38 -17 70 -19 365 -19 l322 0 0 325 c0 438 -4 429 199 432
69 0 129 2 132 2 3 1 -5 34 -18 75 l-24 74 -102 1 c-170 1 -243 -34 -304 -144
l-28 -50 -3 -282 -3 -283 -229 0 c-147 0 -238 4 -254 11 -34 16 -57 73 -60
152 -3 66 -2 67 23 68 14 0 82 1 151 1 141 1 174 11 183 55 9 47 1 256 -11
299 -37 129 -162 206 -293 179z m102 -155 c33 -18 51 -68 53 -149 l1 -76 -99
-3 c-60 -2 -102 1 -106 7 -5 9 -6 75 -1 154 1 10 14 32 30 48 31 31 83 39 122
19z"/>
<path d="M799 1398 c-1 -2 -2 -52 -3 -112 -1 -98 0 -109 17 -115 33 -13 140
-2 159 16 22 19 24 66 4 82 -11 10 -12 19 -4 42 16 46 -1 75 -49 82 -37 7
-122 9 -124 5z m145 -38 c13 -10 14 -45 2 -58 -3 -2 -31 -5 -63 -6 -57 -1 -58
0 -61 27 -6 51 3 58 58 54 28 -3 57 -10 64 -17z m14 -103 c13 -13 13 -21 4
-42 -12 -25 -16 -27 -72 -27 -71 0 -70 -1 -70 40 0 21 2 41 5 43 11 12 118 0
133 -14z"/>
<path d="M1050 1287 c0 -66 4 -118 10 -122 8 -5 15 36 12 66 -1 4 19 6 44 6
39 0 47 -4 65 -34 11 -18 27 -33 35 -33 17 0 12 13 -18 46 -19 21 -18 21 11
53 26 28 28 35 20 63 -14 50 -31 60 -108 66 l-71 5 0 -116z m141 64 c25 -30
24 -46 -3 -71 -16 -14 -35 -20 -70 -20 l-47 0 3 53 c2 28 4 55 5 59 0 3 22 5
47 4 35 -2 52 -8 65 -25z"/>
<path d="M1339 1353 c-11 -27 -35 -78 -54 -115 -25 -51 -30 -68 -19 -68 8 0
20 11 26 25 12 26 14 27 92 29 42 1 51 -3 65 -24 16 -26 33 -41 39 -35 2 2
-14 39 -34 82 -21 43 -39 80 -39 83 -2 22 -30 70 -42 70 -7 0 -23 -21 -34 -47z
m81 -97 c0 -7 -18 -10 -50 -8 -27 2 -50 5 -50 7 0 1 12 29 27 61 l26 58 24
-53 c12 -30 23 -59 23 -65z"/>
<path d="M1530 1285 c0 -88 3 -115 13 -115 10 0 13 21 12 85 0 47 2 85 5 85 6
0 22 -18 63 -72 45 -61 85 -101 94 -95 4 3 7 52 7 109 -2 124 -2 118 -14 118
-5 0 -9 -30 -9 -67 0 -38 0 -79 0 -92 l-1 -24 -25 27 c-14 15 -45 53 -68 84
-74 100 -77 98 -77 -43z"/>
<path d="M1802 1289 c0 -63 5 -117 10 -120 17 -11 133 3 163 20 38 22 59 90
41 135 -20 50 -58 70 -141 74 l-74 4 1 -113z m170 52 c35 -39 36 -80 4 -117
-20 -24 -33 -28 -87 -32 l-64 -4 1 88 c1 49 2 92 3 96 0 4 27 5 58 3 50 -3 62
-8 85 -34z"/>
<path d="M2080 1285 c0 -89 3 -115 13 -115 10 0 13 26 13 115 -1 85 -4 115
-13 115 -10 0 -13 -29 -13 -115z"/>
<path d="M2182 1285 c3 -130 23 -158 23 -33 0 42 2 79 5 81 3 3 34 -32 70 -78
36 -46 72 -84 80 -85 12 0 15 19 15 115 0 85 -3 115 -12 115 -10 0 -13 -25
-13 -90 0 -49 -3 -90 -7 -90 -8 1 -95 111 -123 156 -8 13 -21 24 -28 24 -10 0
-12 -27 -10 -115z"/>
<path d="M2484 1381 c-37 -23 -59 -77 -50 -125 11 -57 71 -97 134 -90 59 7 72
20 72 70 0 32 -4 44 -12 41 -8 -2 -12 -18 -11 -38 2 -40 -9 -49 -64 -49 -73 0
-115 61 -91 132 17 50 111 72 155 36 7 -5 13 -5 17 0 22 35 -102 54 -150 23z"/>
<path d="M2838 1353 c-11 -27 -34 -77 -49 -112 -21 -45 -26 -67 -18 -72 16
-10 49 1 49 17 0 19 16 26 70 28 44 1 50 -1 60 -24 7 -17 18 -25 35 -25 14 0
25 2 25 5 0 9 -57 145 -79 188 -17 33 -27 42 -47 42 -20 0 -29 -9 -46 -47z
m81 -93 c1 -5 -38 -6 -61 -1 -3 0 1 20 10 42 l16 42 17 -39 c10 -21 18 -41 18
-44z"/>
<path d="M3091 1388 c-60 -32 -83 -117 -48 -172 23 -34 81 -59 125 -52 20 3
40 5 44 6 35 2 54 104 22 117 -19 7 -39 -11 -40 -37 -1 -11 -2 -24 -3 -30 -2
-18 -77 -11 -93 8 -23 27 -23 85 0 105 26 23 71 28 98 10 19 -12 24 -12 38 2
15 15 15 18 0 32 -21 21 -111 28 -143 11z"/>
<path d="M3299 1383 c-6 -90 -2 -213 6 -214 6 0 47 -1 93 -2 79 -2 82 -1 82
20 0 22 -4 23 -65 23 -63 0 -65 1 -65 25 0 24 3 25 55 25 51 0 55 2 55 23 0
23 -3 24 -55 21 -54 -3 -55 -2 -55 25 0 27 1 27 53 26 64 -2 76 2 73 23 -2 14
-17 17 -89 20 -78 2 -87 1 -88 -15z"/>
<path d="M3519 1368 c-3 -105 3 -193 13 -199 27 -17 43 -2 45 42 0 24 2 55 2
69 l1 25 18 -26 c32 -49 87 -107 102 -109 33 -5 35 2 35 113 l0 112 -27 3
c-27 3 -27 3 -25 -52 3 -50 -5 -89 -16 -76 -2 3 -25 33 -52 68 -35 45 -54 62
-71 62 -20 0 -24 -5 -25 -32z"/>
<path d="M3844 1390 c-24 -10 -63 -60 -69 -89 -11 -58 39 -124 104 -137 31 -6
121 20 121 34 0 15 -37 30 -51 21 -20 -13 -73 -11 -92 4 -27 19 -33 78 -10
106 21 26 89 34 103 12 6 -11 11 -11 28 1 52 36 -63 77 -134 48z"/>
<path d="M4010 1391 c0 -12 37 -77 62 -110 11 -15 18 -41 18 -71 0 -46 0 -46
29 -42 26 3 29 8 26 33 -4 27 39 123 71 160 21 24 17 39 -11 39 -18 0 -30 -10
-44 -37 -36 -69 -35 -68 -71 -14 -24 38 -38 51 -56 51 -13 0 -24 -4 -24 -9z"/>
</g>
</svg>
